<svg width="416" height="338" viewBox="0 0 416 338" fill="none" xmlns="http://www.w3.org/2000/svg">
<path d="M349.208 139.06H271.256C262.441 139.06 258.033 135.786 258.033 129.112V53.9304C258.033 53.8044 257.907 53.6785 257.781 53.6785H251.863C251.737 53.6785 251.611 53.8044 251.611 53.9304V114H225.417V33.5294H251.611V38.6926C256.018 35.2925 262.567 33.5294 271.13 33.5294C279.819 33.5294 284.227 36.9296 284.227 43.7299V118.785C284.227 118.911 284.353 119.037 284.479 119.037H349.208V139.06ZM349.208 114H303.495C294.428 114 290.398 110.726 290.398 104.051V43.7299C290.398 36.9296 294.805 33.5294 303.495 33.5294H323.014V13.3804H349.208V114ZM323.014 93.9767V53.6785H316.843C316.717 53.6785 316.592 53.8044 316.592 53.9304V93.7248C316.592 93.8507 316.717 93.9767 316.843 93.9767H323.014Z" fill="white"/>
<path d="M218.972 139.061H140.894C132.205 139.061 127.797 135.786 127.797 129.112V82.0135C127.797 81.8876 127.671 81.7616 127.545 81.7616H121.374V114H95.1807V33.5298H140.894C149.583 33.5298 153.865 36.9299 153.865 43.7303V67.1536C153.865 71.0574 151.724 73.1983 147.442 73.702C151.85 74.3317 153.991 76.4725 153.991 80.3764V118.786C153.991 118.911 154.117 119.037 154.243 119.037H218.972V139.061ZM127.797 65.5164V53.9307C127.797 53.8048 127.671 53.6789 127.545 53.6789H121.374V65.7683H127.545C127.671 65.7683 127.797 65.6424 127.797 65.5164ZM192.778 93.977V81.3838H186.607C186.481 81.3838 186.355 81.5098 186.355 81.6357V93.7251C186.355 93.8511 186.481 93.977 186.607 93.977H192.778ZM218.972 114H173.258C164.569 114 160.161 110.726 160.161 104.052V73.702C160.161 67.0276 164.569 63.7534 173.258 63.7534H192.778V53.9307C192.778 53.8048 192.652 53.6789 192.526 53.6789H186.607C186.481 53.6789 186.355 53.8048 186.355 53.9307V58.5902H160.161V43.7303C160.161 36.9299 164.569 33.5298 173.258 33.5298H205.875C214.564 33.5298 218.972 36.9299 218.972 43.7303V114Z" fill="white"/>
<path d="M75.5858 139.061H29.8726V119.037H62.237C62.3629 119.037 62.4889 118.911 62.4889 118.786V114H42.9695C34.2802 114 29.8726 110.726 29.8726 104.052V43.7303C29.8726 36.9299 34.2802 33.5298 42.9695 33.5298H88.6827V129.112C88.6827 135.786 84.275 139.061 75.5858 139.061ZM62.4889 93.977V53.6789H56.3182C56.1923 53.6789 56.0664 53.8048 56.0664 53.9307V93.7251C56.0664 93.8511 56.1923 93.977 56.3182 93.977H62.4889Z" fill="white"/>
<path fill-rule="evenodd" clip-rule="evenodd" d="M361.735 151.587H271.256C265.668 151.587 259.163 150.616 253.822 146.611C247.793 142.088 245.506 135.47 245.506 129.112V126.527H218.972V119.037H212.89V114H218.972V43.7301C218.972 39.1031 216.931 36.0503 212.89 34.5715V21.0026H264.138V21.3606C266.435 21.1144 268.775 21.0026 271.13 21.0026C276.315 21.0026 282.249 21.8868 287.312 25.2459C292.375 21.8868 298.31 21.0026 303.494 21.0026H310.487V0.853516H361.735V151.587ZM295.231 35.1105C292.018 36.7337 290.397 39.6069 290.397 43.7301V104.051C290.397 104.93 290.467 105.749 290.609 106.51C290.744 107.231 290.943 107.9 291.209 108.516C291.944 110.219 293.188 111.521 294.983 112.428C295.523 112.701 296.113 112.939 296.754 113.14C298.579 113.715 300.817 114 303.494 114H349.208V13.3806H323.014V33.5297H303.494C300.074 33.5297 297.316 34.0566 295.231 35.1105ZM279.394 35.1105C277.308 34.0566 274.551 33.5297 271.13 33.5297C268.626 33.5297 266.294 33.6804 264.138 33.9788C258.92 34.7008 254.729 36.287 251.611 38.6929V33.5297H225.417V114H251.611V53.9306C251.611 53.8047 251.736 53.6787 251.862 53.6787H257.781C257.907 53.6787 258.033 53.8047 258.033 53.9306V129.112C258.033 135.786 262.441 139.06 271.256 139.06H349.208V119.037H284.479C284.353 119.037 284.227 118.911 284.227 118.785V43.7301C284.227 39.6069 282.606 36.7337 279.394 35.1105ZM323.014 93.9769H316.843C316.717 93.9769 316.591 93.8509 316.591 93.725V53.9306C316.591 53.8047 316.717 53.6787 316.843 53.6787H323.014V93.9769Z" fill="black"/>
<path fill-rule="evenodd" clip-rule="evenodd" d="M88.6826 126.527H115.27V129.112C115.27 135.463 117.551 142.063 123.536 146.585C128.857 150.604 135.337 151.587 140.894 151.587H231.499V114H225.417V33.5295H229.299C227.999 30.8081 226.07 28.2871 223.368 26.1875C218.041 22.0485 211.514 21.0024 205.875 21.0024H173.259C168.064 21.0024 162.118 21.8899 157.049 25.2641C151.994 21.8799 146.06 21.0024 140.894 21.0024H82.6538V33.5295H88.6826V126.527ZM164.903 35.1571C161.751 36.7884 160.162 39.646 160.162 43.73V58.5899H186.355V53.9304C186.355 53.8045 186.481 53.6786 186.607 53.6786H192.526C192.652 53.6786 192.778 53.8045 192.778 53.9304V63.7531H173.259C170.554 63.7531 168.263 64.0704 166.392 64.7088C164.74 65.2725 163.414 66.0864 162.417 67.1533C162.25 67.3328 162.091 67.5194 161.942 67.7133C161.205 68.6719 160.696 69.806 160.416 71.117C160.247 71.9132 160.162 72.7747 160.162 73.7017V104.051C160.162 104.93 160.238 105.749 160.39 106.51C160.539 107.252 160.76 107.938 161.053 108.569C161.796 110.17 163.004 111.413 164.671 112.304C165.234 112.605 165.85 112.866 166.518 113.086C168.366 113.697 170.614 114 173.259 114H218.972V43.73C218.972 36.9297 214.564 33.5295 205.875 33.5295H173.259C169.788 33.5295 167 34.072 164.903 35.1571ZM153.991 80.3761C153.991 76.5294 151.912 74.3944 147.635 73.7303C147.571 73.7205 147.507 73.7109 147.443 73.7017C147.507 73.6941 147.571 73.6862 147.635 73.6778C150.035 73.363 151.742 72.5171 152.755 71.117C153.495 70.0944 153.865 68.7762 153.865 67.1533V43.73C153.865 39.6224 152.303 36.7554 149.151 35.1289C147.085 34.0626 144.335 33.5295 140.894 33.5295H95.1809V114H121.375V81.7614H127.545C127.671 81.7614 127.797 81.8873 127.797 82.0132V129.112C127.797 135.786 132.205 139.06 140.894 139.06H218.972V119.037H154.243C154.117 119.037 153.991 118.911 153.991 118.785V80.3761ZM127.545 53.6786C127.671 53.6786 127.797 53.8045 127.797 53.9304V65.5162C127.797 65.6421 127.671 65.768 127.545 65.768H121.375V53.6786H127.545ZM186.355 81.6354C186.355 81.5095 186.481 81.3836 186.607 81.3836H192.778V93.9767H186.607C186.481 93.9767 186.355 93.8508 186.355 93.7249V81.6354Z" fill="black"/>
<path fill-rule="evenodd" clip-rule="evenodd" d="M75.5855 139.06C84.2748 139.06 88.6824 135.786 88.6824 129.112V33.5295H42.9692C34.2799 33.5295 29.8723 36.9297 29.8723 43.73V104.051C29.8723 104.93 29.9486 105.749 30.101 106.51C31.1066 111.531 35.4235 114 42.9692 114H62.4886V118.785C62.4886 118.911 62.3627 119.037 62.2367 119.037H29.8723V139.06H75.5855ZM17.4615 106.51C17.383 105.69 17.3452 104.868 17.3452 104.051V43.73C17.3452 37.4093 19.5565 30.7871 25.4763 26.1875C30.8034 22.0485 37.3297 21.0024 42.9692 21.0024H101.209V33.5295H95.1806V114H101.209V129.112C101.209 135.463 98.9288 142.063 92.9431 146.585C87.6226 150.604 81.1429 151.587 75.5855 151.587H17.3452V106.51H17.4615ZM62.4886 93.9767H56.3179C56.192 93.9767 56.0661 93.8508 56.0661 93.7249V53.9304C56.0661 53.8045 56.192 53.6786 56.3179 53.6786H62.4886V93.9767Z" fill="black"/>
<path d="M388.792 233.43H356.176C347.486 233.43 343.079 230.156 343.079 223.482V178.02H336.656V158.123H343.079V152.96H369.273V158.123H401.889V178.02H369.273V213.155C369.273 213.281 369.398 213.407 369.524 213.407H375.569C375.695 213.407 375.821 213.281 375.821 213.155V183.184H401.889V223.482C401.889 230.156 397.481 233.43 388.792 233.43Z" fill="white"/>
<path d="M311.131 233.43H284.938V163.16C284.938 156.486 289.345 152.96 298.034 152.96H334.051V173.109H311.383C311.257 173.109 311.131 173.235 311.131 173.361V178.02H333.799V198.169H311.131V233.43Z" fill="white"/>
<path d="M278.742 258.49H200.79C191.975 258.49 187.567 255.216 187.567 248.542V173.361C187.567 173.235 187.441 173.109 187.315 173.109H181.144V233.43H154.951V132.811H181.144V152.96H200.664C209.353 152.96 213.761 156.36 213.761 163.16V238.215C213.761 238.341 213.887 238.467 214.013 238.467H278.742V258.49ZM252.548 184.568V173.361C252.548 173.235 252.422 173.109 252.296 173.109H246.377C246.251 173.109 246.125 173.235 246.125 173.361V184.568H252.548ZM265.645 233.43H233.028C224.339 233.43 219.931 230.156 219.931 223.481V163.16C219.931 156.36 224.339 152.96 233.028 152.96H265.645C274.334 152.96 278.742 156.36 278.742 163.16V203.332H246.125V213.155C246.125 213.281 246.251 213.407 246.377 213.407H252.296C252.422 213.407 252.548 213.281 252.548 213.155V208.37H278.742V223.481C278.742 230.156 274.334 233.43 265.645 233.43Z" fill="white"/>
<path d="M135.453 233.43H102.837C94.1475 233.43 89.7399 230.156 89.7399 223.482V178.02H83.3174V158.123H89.7399V152.96H115.934V158.123H148.55V178.02H115.934V213.155C115.934 213.281 116.06 213.407 116.186 213.407H122.23C122.356 213.407 122.482 213.281 122.482 213.155V183.184H148.55V223.482C148.55 230.156 144.142 233.43 135.453 233.43Z" fill="white"/>
<path fill-rule="evenodd" clip-rule="evenodd" d="M329.142 198.169V223.482C329.142 230.172 331.555 237.235 337.968 242.08C343.641 246.365 350.482 247.367 356.176 247.367H388.792C394.486 247.367 401.326 246.365 406.999 242.08C413.413 237.235 415.826 230.172 415.826 223.482V144.186H383.21V139.023H329.142V144.186H322.719V152.96H334.051V173.109H322.719V178.02H333.799V198.169H329.142ZM343.079 223.482C343.079 230.156 347.486 233.43 356.176 233.43H388.792C397.481 233.43 401.889 230.156 401.889 223.482V183.184H375.821V213.155C375.821 213.281 375.695 213.407 375.569 213.407H369.524C369.398 213.407 369.273 213.281 369.273 213.155V178.02H401.889V158.123H369.273V152.96H343.079V158.123H336.656V178.02H343.079V223.482Z" fill="black"/>
<path fill-rule="evenodd" clip-rule="evenodd" d="M278.742 247.367H325.069V212.106H343.079V178.02H336.657V158.123H343.079V152.96H347.988V139.023H298.035C292.147 139.023 285.274 140.163 279.628 144.59C276.25 147.239 274.003 150.506 272.652 153.999C276.699 155.477 278.742 158.53 278.742 163.16V203.333H271.001V208.37H278.742V223.482C278.742 228.607 276.142 231.728 271.001 232.9V238.468H278.742V247.367ZM334.051 152.96H298.035C289.346 152.96 284.938 156.486 284.938 163.16V233.43H311.132V198.169H333.799V178.02H311.132V173.361C311.132 173.235 311.258 173.109 311.384 173.109H334.051V152.96Z" fill="black"/>
<path fill-rule="evenodd" clip-rule="evenodd" d="M292.678 272.427H200.79C195.069 272.427 188.204 271.438 182.51 267.169C176.05 262.323 173.63 255.24 173.63 248.542V247.367H141.014V232.851C146.019 231.643 148.55 228.538 148.55 223.481V183.183H141.014V178.02H148.55V158.123H141.014V118.874H195.081V139.023H200.664C205.728 139.023 211.641 139.841 216.846 143.006C222.051 139.841 227.964 139.023 233.028 139.023H265.645C271.43 139.023 278.322 140.091 284.003 144.504C287.443 147.178 289.705 150.486 291.054 154.015C286.99 155.518 284.938 158.606 284.938 163.16V233.43H292.678V272.427ZM278.703 224.53C278.729 224.19 278.742 223.841 278.742 223.481V208.37H252.548V213.155C252.548 213.281 252.422 213.407 252.296 213.407H246.377C246.251 213.407 246.125 213.281 246.125 213.155V203.332H278.742V163.16C278.742 156.36 274.334 152.96 265.645 152.96H233.028C230.274 152.96 227.951 153.301 226.061 153.984C221.988 155.456 219.931 158.515 219.931 163.16V223.481C219.931 223.841 219.944 224.19 219.97 224.53C220.008 225.039 220.075 225.525 220.17 225.99C220.847 229.286 222.961 231.476 226.489 232.581C226.875 232.702 227.278 232.81 227.698 232.905C229.245 233.256 231.023 233.43 233.028 233.43H265.645C273.866 233.43 278.254 230.499 278.703 224.53ZM207.631 153.984C205.741 153.301 203.418 152.96 200.664 152.96H181.144V132.811H154.951V233.43H181.144V173.109H187.315C187.441 173.109 187.567 173.235 187.567 173.361V248.542C187.567 255.216 191.975 258.49 200.79 258.49H278.742V238.467H214.013C213.887 238.467 213.761 238.341 213.761 238.215V163.16C213.761 158.515 211.704 155.456 207.631 153.984ZM252.548 173.361V184.568H246.125V173.361C246.125 173.235 246.251 173.109 246.377 173.109H252.296C252.422 173.109 252.548 173.235 252.548 173.361Z" fill="black"/>
<path fill-rule="evenodd" clip-rule="evenodd" d="M102.837 233.43H135.453C144.142 233.43 148.55 230.156 148.55 223.482V183.184H122.482V213.155C122.482 213.281 122.356 213.407 122.23 213.407H116.186C116.06 213.407 115.934 213.281 115.934 213.155V178.02H148.55V158.123H115.934V152.96H89.7399V158.123H83.3174V178.02H89.7399V223.482C89.7399 230.156 94.1475 233.43 102.837 233.43ZM75.8029 191.957H69.3804V144.186H75.8029V139.023H129.871V144.186H154.951V233.43H160.497C159.093 236.654 156.881 239.647 153.661 242.08C147.987 246.365 141.147 247.367 135.453 247.367H102.837C97.1429 247.367 90.3024 246.365 84.6293 242.08C78.2162 237.235 75.8029 230.172 75.8029 223.482V191.957Z" fill="black"/>
<path d="M366.397 325.229H335.618C327.419 325.229 323.259 322.14 323.259 315.841V301.581H347.977V306.097C347.977 306.215 348.096 306.334 348.215 306.334H353.8C353.919 306.334 354.038 306.215 354.038 306.097V297.065C354.038 296.946 353.919 296.827 353.8 296.827H335.618C327.419 296.827 323.259 293.619 323.259 287.201V258.918C323.259 252.501 327.419 249.292 335.618 249.292H366.397C374.597 249.292 378.756 252.501 378.756 258.918V272.941H354.038V268.544C354.038 268.425 353.919 268.306 353.8 268.306H348.215C348.096 268.306 347.977 268.425 347.977 268.544V277.576C347.977 277.695 348.096 277.813 348.215 277.813H366.397C374.597 277.813 378.756 280.903 378.756 287.201V315.841C378.756 322.14 374.597 325.229 366.397 325.229Z" fill="white"/>
<path d="M305.098 325.229H274.319C266.119 325.229 261.96 322.14 261.96 315.841V272.941H255.899V254.165H261.96V249.292H286.678V254.165H317.457V272.941H286.678V306.097C286.678 306.215 286.797 306.334 286.916 306.334H292.62C292.739 306.334 292.858 306.215 292.858 306.097V277.813H317.457V315.841C317.457 322.14 313.298 325.229 305.098 325.229Z" fill="white"/>
<path d="M227.658 279.121V268.544C227.658 268.425 227.539 268.306 227.421 268.306H221.835C221.716 268.306 221.597 268.425 221.597 268.544V279.121H227.658ZM240.017 325.229H209.238C201.039 325.229 196.879 322.14 196.879 315.841V258.918C196.879 252.501 201.039 249.292 209.238 249.292H240.017C248.217 249.292 252.376 252.501 252.376 258.918V296.827H221.597V306.097C221.597 306.215 221.716 306.334 221.835 306.334H227.421C227.539 306.334 227.658 306.215 227.658 306.097V301.581H252.376V315.841C252.376 322.14 248.217 325.229 240.017 325.229Z" fill="white"/>
<path d="M178.858 325.229H148.079C139.879 325.229 135.72 322.14 135.72 315.841V301.581H160.438V306.097C160.438 306.215 160.557 306.334 160.675 306.334H166.261C166.38 306.334 166.498 306.215 166.498 306.097V297.065C166.498 296.946 166.38 296.827 166.261 296.827H148.079C139.879 296.827 135.72 293.619 135.72 287.201V258.918C135.72 252.501 139.879 249.292 148.079 249.292H178.858C187.057 249.292 191.217 252.501 191.217 258.918V272.941H166.498V268.544C166.498 268.425 166.38 268.306 166.261 268.306H160.675C160.557 268.306 160.438 268.425 160.438 268.544V277.576C160.438 277.695 160.557 277.813 160.675 277.813H178.858C187.057 277.813 191.217 280.903 191.217 287.201V315.841C191.217 322.14 187.057 325.229 178.858 325.229Z" fill="white"/>
<path d="M117.698 325.229H86.9196C78.7198 325.229 74.5605 322.14 74.5605 315.841V301.581H99.2786V306.097C99.2786 306.215 99.3975 306.334 99.5163 306.334H105.102C105.22 306.334 105.339 306.215 105.339 306.097V297.065C105.339 296.946 105.22 296.827 105.102 296.827H86.9196C78.7198 296.827 74.5605 293.619 74.5605 287.201V258.918C74.5605 252.501 78.7198 249.292 86.9196 249.292H117.698C125.898 249.292 130.057 252.501 130.057 258.918V272.941H105.339V268.544C105.339 268.425 105.22 268.306 105.102 268.306H99.5163C99.3975 268.306 99.2786 268.425 99.2786 268.544V277.576C99.2786 277.695 99.3975 277.813 99.5163 277.813H117.698C125.898 277.813 130.057 280.903 130.057 287.201V315.841C130.057 322.14 125.898 325.229 117.698 325.229Z" fill="white"/>
<path d="M44.0644 306.334V294.451H38.2414C38.1226 294.451 38.0037 294.569 38.0037 294.688V306.097C38.0037 306.215 38.1226 306.334 38.2414 306.334H44.0644ZM68.7825 325.229H25.6447C17.4449 325.229 13.2856 322.14 13.2856 315.841V287.201C13.2856 280.903 17.4449 277.813 25.6447 277.813H44.0644V268.544C44.0644 268.425 43.9456 268.306 43.8267 268.306H38.2414C38.1226 268.306 38.0037 268.425 38.0037 268.544V272.941H13.2856V258.918C13.2856 252.501 17.4449 249.292 25.6447 249.292H56.4235C64.6232 249.292 68.7825 252.501 68.7825 258.918V325.229Z" fill="white"/>
<path fill-rule="evenodd" clip-rule="evenodd" d="M323.376 288.976C324.103 294.21 328.213 296.827 335.618 296.827H353.801C353.919 296.827 354.038 296.946 354.038 297.065V306.097C354.038 306.215 353.919 306.334 353.801 306.334H348.215C348.096 306.334 347.977 306.215 347.977 306.097V301.581H323.259V315.841C323.259 322.14 327.419 325.229 335.618 325.229H366.397C374.597 325.229 378.756 322.14 378.756 315.841V287.202C378.756 286.623 378.721 286.071 378.651 285.546C377.957 280.361 373.843 277.813 366.397 277.813H348.215C348.096 277.813 347.977 277.695 347.977 277.576V268.544C347.977 268.425 348.096 268.307 348.215 268.307H353.801C353.919 268.307 354.038 268.425 354.038 268.544V272.941H378.756V258.918C378.756 252.501 374.597 249.293 366.397 249.293H335.618C327.419 249.293 323.259 252.501 323.259 258.918V287.202C323.259 287.823 323.298 288.415 323.376 288.976ZM391.307 285.546H391.361V258.918C391.361 252.771 389.205 246.267 383.385 241.746C378.162 237.687 371.8 236.688 366.397 236.688H335.618C330.216 236.688 323.854 237.687 318.63 241.746C314.301 245.109 311.999 249.57 311.104 254.165H317.457V272.941H310.655V277.813H317.457V315.841C317.457 319.971 315.669 322.722 312.125 324.126C313.385 327.427 315.519 330.501 318.767 332.955C323.983 336.895 330.298 337.834 335.618 337.834H366.397C371.717 337.834 378.032 336.895 383.249 332.955C389.135 328.509 391.361 322.023 391.361 315.841V287.202C391.361 286.652 391.343 286.099 391.307 285.546Z" fill="black"/>
<path fill-rule="evenodd" clip-rule="evenodd" d="M286.678 306.097C286.678 306.215 286.797 306.334 286.916 306.334H292.62C292.739 306.334 292.858 306.215 292.858 306.097V277.813H317.457V315.841C317.457 322.14 313.298 325.229 305.098 325.229H274.319C266.12 325.229 261.96 322.14 261.96 315.841V272.941H255.9V254.165H261.96V249.293H286.678V254.165H317.457V272.941H286.678V306.097ZM323.26 287.202C323.26 291.956 325.543 294.95 330.062 296.181V301.581H323.26V315.841C323.26 319.971 325.048 322.722 328.591 324.126C327.331 327.427 325.198 330.501 321.95 332.955C316.733 336.895 310.418 337.834 305.098 337.834H274.319C268.999 337.834 262.684 336.895 257.467 332.955C253.565 330.007 251.271 326.162 250.169 322.104C251.637 320.58 252.376 318.496 252.376 315.841V301.581H249.356V296.827H252.376V258.918C252.376 257.067 252.03 255.482 251.34 254.165C250.851 253.231 250.189 252.431 249.356 251.765C247.875 250.583 245.853 249.825 243.295 249.491V241.56H249.356V236.688H299.283V241.56H330.062V249.939C327.303 250.691 325.377 252.099 324.296 254.165C323.606 255.482 323.26 257.067 323.26 258.918V287.202Z" fill="black"/>
<path fill-rule="evenodd" clip-rule="evenodd" d="M252.376 296.827H221.597V306.097C221.597 306.215 221.716 306.334 221.835 306.334H227.42C227.539 306.334 227.658 306.215 227.658 306.097V301.581H252.376V315.841C252.376 322.14 248.217 325.229 240.017 325.229H209.238C201.038 325.229 196.879 322.14 196.879 315.841V258.918C196.879 252.501 201.038 249.293 209.238 249.293H240.017C248.217 249.293 252.376 252.501 252.376 258.918V296.827ZM261.96 315.841C261.96 318.496 262.699 320.58 264.168 322.104C263.065 326.162 260.771 330.007 256.869 332.955C251.652 336.895 245.337 337.834 240.017 337.834H209.238C203.918 337.834 197.603 336.895 192.386 332.955C189.154 330.513 187.026 327.457 185.763 324.173C189.387 322.784 191.217 320.018 191.217 315.841V287.202C191.217 282.487 188.886 279.57 184.274 278.401V272.941H191.217V258.918C191.217 254.678 189.401 251.839 185.804 250.401C187.049 247.185 189.119 244.178 192.25 241.746C197.473 237.687 203.835 236.688 209.238 236.688H240.017C245.42 236.688 251.782 237.687 257.005 241.746C259.773 243.897 261.713 246.496 262.985 249.293H261.96V254.165H255.899V272.941H261.96V315.841ZM227.658 268.544V279.121H221.597V268.544C221.597 268.425 221.716 268.307 221.835 268.307H227.42C227.539 268.307 227.658 268.425 227.658 268.544Z" fill="black"/>
<path fill-rule="evenodd" clip-rule="evenodd" d="M135.837 288.976C136.564 294.21 140.673 296.827 148.079 296.827H166.261C166.38 296.827 166.499 296.946 166.499 297.065V306.097C166.499 306.215 166.38 306.334 166.261 306.334H160.676C160.557 306.334 160.438 306.215 160.438 306.097V301.581H135.72V315.841C135.72 322.14 139.879 325.229 148.079 325.229H178.858C187.057 325.229 191.217 322.14 191.217 315.841V287.202C191.217 286.623 191.182 286.071 191.111 285.546C190.418 280.361 186.304 277.813 178.858 277.813H160.676C160.557 277.813 160.438 277.695 160.438 277.576V268.544C160.438 268.425 160.557 268.307 160.676 268.307H166.261C166.38 268.307 166.499 268.425 166.499 268.544V272.941H191.217V258.918C191.217 252.501 187.057 249.293 178.858 249.293H148.079C139.879 249.293 135.72 252.501 135.72 258.918V287.202C135.72 287.823 135.759 288.415 135.837 288.976ZM196.879 315.841C196.879 320.018 198.708 322.784 202.332 324.173C201.07 327.457 198.942 330.513 195.71 332.955C190.493 336.895 184.178 337.834 178.858 337.834H148.079C142.759 337.834 136.444 336.895 131.227 332.955C127.995 330.513 125.866 327.457 124.604 324.173C128.228 322.784 130.057 320.018 130.057 315.841V287.202C130.057 282.487 127.727 279.57 123.115 278.401V272.941H130.057V258.918C130.057 254.678 128.242 251.839 124.645 250.401C125.889 247.185 127.96 244.178 131.091 241.746C136.314 237.687 142.676 236.688 148.079 236.688H178.858C184.26 236.688 190.622 237.687 195.846 241.746C198.977 244.178 201.047 247.185 202.292 250.401C198.695 251.839 196.879 254.678 196.879 258.918V315.841Z" fill="black"/>
<path fill-rule="evenodd" clip-rule="evenodd" d="M74.6778 288.976C75.4046 294.21 79.5144 296.827 86.9198 296.827H105.102C105.221 296.827 105.34 296.946 105.34 297.065V306.097C105.34 306.215 105.221 306.334 105.102 306.334H99.5165C99.3977 306.334 99.2789 306.215 99.2789 306.097V301.581H74.5608V315.841C74.5608 322.14 78.7201 325.229 86.9198 325.229H117.699C125.898 325.229 130.058 322.14 130.058 315.841V287.202C130.058 286.623 130.022 286.071 129.952 285.546C129.259 280.361 125.145 277.813 117.699 277.813H99.5165C99.3977 277.813 99.2789 277.695 99.2789 277.576V268.544C99.2789 268.425 99.3977 268.307 99.5165 268.307H105.102C105.221 268.307 105.34 268.425 105.34 268.544V272.941H130.058V258.918C130.058 252.501 125.898 249.293 117.699 249.293H86.9198C78.7201 249.293 74.5608 252.501 74.5608 258.918V287.202C74.5608 287.823 74.5998 288.415 74.6778 288.976ZM135.72 287.202C135.72 292.005 138.051 295.011 142.662 296.219V301.581H135.72V315.841C135.72 320.018 137.549 322.784 141.173 324.173C139.911 327.457 137.783 330.513 134.55 332.955C129.334 336.895 123.019 337.834 117.699 337.834H86.9198C81.5997 337.834 75.2846 336.895 70.0679 332.955C67.185 330.777 65.1802 328.11 63.8849 325.229H68.7823V258.918C68.7823 254.718 67.0004 251.892 63.4697 250.441C64.7129 247.21 66.7877 244.189 69.9319 241.746C75.1551 237.687 81.5171 236.688 86.9198 236.688H117.699C123.101 236.688 129.463 237.687 134.687 241.746C137.817 244.178 139.888 247.185 141.133 250.401C137.536 251.839 135.72 254.678 135.72 258.918V287.202Z" fill="black"/>
<path fill-rule="evenodd" clip-rule="evenodd" d="M13.2853 258.918C13.2853 252.501 17.4446 249.293 25.6443 249.293H56.4231C64.6228 249.293 68.7821 252.501 68.7821 258.918V325.229H25.6443C17.4446 325.229 13.2853 322.14 13.2853 315.841V287.202C13.2853 286.623 13.3204 286.071 13.3906 285.546C14.0842 280.361 18.1984 277.813 25.6443 277.813H44.0641V268.544C44.0641 268.425 43.9452 268.307 43.8264 268.307H38.241C38.1222 268.307 38.0034 268.425 38.0034 268.544V272.941H13.2853V258.918ZM0.734546 285.546H0.680664V258.918C0.680664 252.771 2.83673 246.267 8.65637 241.746C13.8796 237.687 20.2416 236.688 25.6443 236.688H56.4231C61.8259 236.688 68.1878 237.687 73.411 241.746C76.5552 244.189 78.63 247.21 79.8732 250.441C76.3426 251.892 74.5606 254.718 74.5606 258.918V287.202C74.5606 291.965 76.8522 294.96 81.3867 296.188V301.581H74.5606V315.841C74.5606 320.516 76.8522 323.424 81.3867 324.612V337.834H25.6443C20.3242 337.834 14.0091 336.895 8.79244 332.955C2.90649 328.509 0.680664 322.023 0.680664 315.841V287.202C0.680664 286.652 0.698288 286.099 0.734546 285.546ZM44.0641 306.334V294.451H38.241C38.1222 294.451 38.0034 294.569 38.0034 294.688V306.097C38.0034 306.215 38.1222 306.334 38.241 306.334H44.0641Z" fill="black"/>
</svg>
